<svg width="24" height="24" viewBox="0 0 24 24" fill="none" xmlns="http://www.w3.org/2000/svg">
<path d="M7.3077 20.5C6.80257 20.5 6.375 20.325 6.025 19.975C5.675 19.625 5.5 19.1974 5.5 18.6923V5.99999H5.25C5.03718 5.99999 4.85898 5.9282 4.7154 5.78462C4.5718 5.64103 4.5 5.46283 4.5 5.25002C4.5 5.0372 4.5718 4.859 4.7154 4.71542C4.85898 4.57182 5.03718 4.50002 5.25 4.50002H8.99997C8.99997 4.24875 9.08779 4.0385 9.26342 3.86927C9.43907 3.70003 9.65254 3.61542 9.90382 3.61542H14.0961C14.3474 3.61542 14.5609 3.70003 14.7365 3.86927C14.9122 4.0385 15 4.24875 15 4.50002H18.75C18.9628 4.50002 19.141 4.57182 19.2845 4.71542C19.4281 4.859 19.5 5.0372 19.5 5.25002C19.5 5.46283 19.4281 5.64103 19.2845 5.78462C19.141 5.9282 18.9628 5.99999 18.75 5.99999H18.5V18.6923C18.5 19.1974 18.325 19.625 17.975 19.975C17.625 20.325 17.1974 20.5 16.6922 20.5H7.3077ZM6.99997 5.99999V18.6923C6.99997 18.782 7.02883 18.8557 7.08652 18.9134C7.14423 18.9711 7.21795 19 7.3077 19H16.6922C16.782 19 16.8557 18.9711 16.9134 18.9134C16.9711 18.8557 17 18.782 17 18.6923V5.99999H6.99997ZM9.40385 16.25C9.40385 16.4628 9.47564 16.641 9.61922 16.7846C9.76281 16.9282 9.94101 17 10.1538 17C10.3666 17 10.5448 16.9282 10.6884 16.7846C10.832 16.641 10.9038 16.4628 10.9038 16.25V8.74997C10.9038 8.53715 10.832 8.35895 10.6884 8.21537C10.5448 8.07178 10.3666 7.99999 10.1538 7.99999C9.94101 7.99999 9.76281 8.07178 9.61922 8.21537C9.47564 8.35895 9.40385 8.53715 9.40385 8.74997V16.25ZM13.0961 16.25C13.0961 16.4628 13.1679 16.641 13.3115 16.7846C13.4551 16.9282 13.6333 17 13.8461 17C14.0589 17 14.2371 16.9282 14.3807 16.7846C14.5243 16.641 14.5961 16.4628 14.5961 16.25V8.74997C14.5961 8.53715 14.5243 8.35895 14.3807 8.21537C14.2371 8.07178 14.0589 7.99999 13.8461 7.99999C13.6333 7.99999 13.4551 8.07178 13.3115 8.21537C13.1679 8.35895 13.0961 8.53715 13.0961 8.74997V16.25ZM6.99997 5.99999V18.6923C6.99997 18.782 7.02883 18.8557 7.08652 18.9134C7.14423 18.9711 7.21795 19 7.3077 19H6.99997V5.99999Z" fill="white"/>
</svg>
